<mxfile host="app.diagrams.net" modified="2021-02-19T22:56:40.636Z" agent="5.0 (X11; Linux x86_64) AppleWebKit/537.36 (KHTML, like Gecko) Chrome/88.0.4324.182 Safari/537.36" etag="dninZHSgszo83KO1lfp9" version="14.4.2" type="github">
  <diagram id="C5RBs43oDa-KdzZeNtuy" name="Page-1">
    <mxGraphModel dx="413" dy="205" grid="1" gridSize="10" guides="1" tooltips="1" connect="1" arrows="1" fold="1" page="1" pageScale="1" pageWidth="827" pageHeight="1169" math="0" shadow="0">
      <root>
        <mxCell id="WIyWlLk6GJQsqaUBKTNV-0" />
        <mxCell id="WIyWlLk6GJQsqaUBKTNV-1" parent="WIyWlLk6GJQsqaUBKTNV-0" />
        <mxCell id="gT0pvpWEjl7GFbjLTHre-5" style="edgeStyle=orthogonalEdgeStyle;curved=0;rounded=1;sketch=0;orthogonalLoop=1;jettySize=auto;html=1;exitX=0.5;exitY=1;exitDx=0;exitDy=0;entryX=0.5;entryY=0;entryDx=0;entryDy=0;" edge="1" parent="WIyWlLk6GJQsqaUBKTNV-1" source="gT0pvpWEjl7GFbjLTHre-0" target="gT0pvpWEjl7GFbjLTHre-4">
          <mxGeometry relative="1" as="geometry" />
        </mxCell>
        <mxCell id="gT0pvpWEjl7GFbjLTHre-0" value="&lt;b&gt;START&lt;/b&gt;" style="ellipse;whiteSpace=wrap;html=1;" vertex="1" parent="WIyWlLk6GJQsqaUBKTNV-1">
          <mxGeometry x="360" y="40" width="120" height="30" as="geometry" />
        </mxCell>
        <mxCell id="gT0pvpWEjl7GFbjLTHre-1" value="&lt;b&gt;FINISH&lt;/b&gt;" style="ellipse;whiteSpace=wrap;html=1;" vertex="1" parent="WIyWlLk6GJQsqaUBKTNV-1">
          <mxGeometry x="490" y="40" width="120" height="30" as="geometry" />
        </mxCell>
        <mxCell id="gT0pvpWEjl7GFbjLTHre-9" style="edgeStyle=orthogonalEdgeStyle;curved=0;rounded=1;sketch=0;orthogonalLoop=1;jettySize=auto;html=1;exitX=0.5;exitY=1;exitDx=0;exitDy=0;entryX=0.5;entryY=0;entryDx=0;entryDy=0;" edge="1" parent="WIyWlLk6GJQsqaUBKTNV-1" source="gT0pvpWEjl7GFbjLTHre-4" target="gT0pvpWEjl7GFbjLTHre-7">
          <mxGeometry relative="1" as="geometry" />
        </mxCell>
        <mxCell id="gT0pvpWEjl7GFbjLTHre-4" value="sum = 0" style="rounded=0;whiteSpace=wrap;html=1;sketch=0;" vertex="1" parent="WIyWlLk6GJQsqaUBKTNV-1">
          <mxGeometry x="360" y="100" width="120" height="30" as="geometry" />
        </mxCell>
        <mxCell id="gT0pvpWEjl7GFbjLTHre-7" value="&lt;div&gt;array = [&lt;span&gt;[1, 2, 3],&lt;/span&gt;&lt;/div&gt;&lt;div&gt;[3, 1, 2],&lt;span&gt;[2, 3, 1]&lt;/span&gt;&lt;span&gt;]&amp;nbsp;&lt;/span&gt;&lt;/div&gt;" style="rounded=0;whiteSpace=wrap;html=1;sketch=0;" vertex="1" parent="WIyWlLk6GJQsqaUBKTNV-1">
          <mxGeometry x="360" y="140" width="120" height="30" as="geometry" />
        </mxCell>
      </root>
    </mxGraphModel>
  </diagram>
</mxfile>
